<svg xmlns="http://www.w3.org/2000/svg" width="275" height="83" viewBox="0 0 275 83" fill="none"><path fill-rule="evenodd" clip-rule="evenodd" d="M82.6144 41.3092C82.6144 18.4952 64.1192 0 41.3092 0C18.4991 0 0 18.4952 0 41.3092C0 64.1232 18.4952 82.6144 41.3092 82.6144C64.1232 82.6144 82.6144 64.1192 82.6144 41.3092ZM78.6213 41.1622C78.6213 53.7174 68.446 63.8927 55.8908 63.8927C43.3355 63.8927 33.1602 53.7174 33.1602 41.1622C33.1602 28.6069 43.3355 18.4316 55.8908 18.4316C68.446 18.4316 78.6213 28.6069 78.6213 41.1622ZM53.4274 9.70649C37.1532 10.962 24.3397 24.5662 24.3397 41.1622C24.3397 57.7582 37.487 71.712 54.0591 72.6576C50.1217 74.2588 45.8187 75.1448 41.3052 75.1448C22.6154 75.1448 7.46561 59.9951 7.46561 41.3052C7.46561 22.6154 22.6193 7.46561 41.3092 7.46561C45.5804 7.46561 49.6688 8.26025 53.4314 9.70251L53.4274 9.70649Z" fill="#00BDFE"></path><path fill-rule="evenodd" clip-rule="evenodd" d="M111.598 41.3744C111.598 37.6895 112.429 34.3696 114.093 31.4285C115.756 28.4805 118.021 26.1817 120.894 24.5184C123.768 22.8551 126.953 22.0234 130.462 22.0234C134.579 22.0234 138.176 23.0174 141.246 25.0052C144.316 26.993 146.561 29.8125 147.967 33.4569H142.057C141.009 31.1783 139.502 29.4271 137.534 28.1965C135.567 26.966 133.207 26.3507 130.462 26.3507C127.717 26.3507 125.458 26.966 123.362 28.1965C121.266 29.4271 119.623 31.1715 118.427 33.4298C117.237 35.6881 116.642 38.3318 116.642 41.3676C116.642 44.4035 117.237 46.9931 118.427 49.2513C119.617 51.5096 121.266 53.2541 123.362 54.4846C125.458 55.7152 127.825 56.3305 130.462 56.3305C133.099 56.3305 135.567 55.7219 137.534 54.5117C139.502 53.3014 141.009 51.557 142.057 49.2784H147.967C146.561 52.8889 144.316 55.6814 141.246 57.6489C138.176 59.6165 134.579 60.6036 130.462 60.6036C126.959 60.6036 123.768 59.7855 120.894 58.1357C118.021 56.4927 115.756 54.2074 114.093 51.2798C112.429 48.3521 111.598 45.0458 111.598 41.3609V41.3744Z" fill="#00BDFE"></path><path d="M160.219 22.5166H155.283V60.2922H160.219V22.5166Z" fill="#00BDFE"></path><path fill-rule="evenodd" clip-rule="evenodd" d="M168.616 22.5169H180.814C183.667 22.5169 186.081 23.0038 188.048 23.9774C190.016 24.951 191.49 26.2695 192.463 27.9328C193.437 29.5961 193.931 31.496 193.931 33.6258C193.931 36.2289 193.18 38.521 191.679 40.5089C190.178 42.4967 187.933 43.8152 184.931 44.4642L194.417 60.2925H188.508L177.149 40.8875H180.807C183.478 40.8875 185.486 40.2249 186.824 38.9064C188.163 37.588 188.833 35.8233 188.833 33.6191C188.833 31.4149 188.17 29.6434 186.851 28.4128C185.533 27.1823 183.518 26.567 180.807 26.567H170.753L168.609 22.5034L168.616 22.5169Z" fill="#00BDFE"></path><path fill-rule="evenodd" clip-rule="evenodd" d="M199.725 41.3744C199.725 37.6895 200.556 34.3696 202.22 31.4285C203.883 28.4805 206.148 26.1817 209.021 24.5184C211.895 22.8551 215.08 22.0234 218.589 22.0234C222.706 22.0234 226.303 23.0174 229.373 25.0052C232.443 26.993 234.687 29.8125 236.094 33.4569H230.184C229.136 31.1783 227.629 29.4271 225.661 28.1965C223.694 26.966 221.334 26.3507 218.589 26.3507C215.844 26.3507 213.585 26.966 211.489 28.1965C209.393 29.4271 207.75 31.1715 206.554 33.4298C205.364 35.6881 204.769 38.3318 204.769 41.3676C204.769 44.4035 205.364 46.9931 206.554 49.2513C207.744 51.5096 209.393 53.2541 211.489 54.4846C213.585 55.7152 215.952 56.3305 218.589 56.3305C221.226 56.3305 223.694 55.7219 225.661 54.5117C227.629 53.3014 229.136 51.557 230.184 49.2784H236.094C234.687 52.8889 232.443 55.6814 229.373 57.6489C226.303 59.6165 222.706 60.6036 218.589 60.6036C215.086 60.6036 211.895 59.7855 209.021 58.1357C206.148 56.4927 203.883 54.2074 202.22 51.2798C200.556 48.3521 199.725 45.0458 199.725 41.3609V41.3744Z" fill="#00BDFE"></path><path fill-rule="evenodd" clip-rule="evenodd" d="M248.345 56.2827H261.57V60.2922H243.416V22.5166H248.345V56.2827Z" fill="#00BDFE"></path><path fill-rule="evenodd" clip-rule="evenodd" d="M270.062 22.0303C270.914 22.0303 271.678 22.2264 272.354 22.6253C273.031 23.0174 273.558 23.5651 273.937 24.2548C274.315 24.9444 274.505 25.7152 274.505 26.5671C274.505 27.4191 274.315 28.1966 273.937 28.893C273.558 29.5894 273.031 30.1371 272.354 30.5293C271.678 30.9214 270.914 31.1243 270.062 31.1243C269.21 31.1243 268.446 30.9282 267.777 30.5293C267.101 30.1371 266.574 29.5894 266.195 28.893C265.816 28.1966 265.627 27.4191 265.627 26.5671C265.627 25.7152 265.816 24.9444 266.195 24.2548C266.574 23.5651 267.101 23.0242 267.777 22.6253C268.453 22.2331 269.21 22.0303 270.062 22.0303ZM270.062 30.509C270.806 30.509 271.469 30.34 272.05 29.9951C272.632 29.6571 273.078 29.1838 273.396 28.5752C273.714 27.9735 273.869 27.2974 273.869 26.5536C273.869 25.8099 273.707 25.1405 273.396 24.5455C273.078 23.9505 272.632 23.4772 272.05 23.1391C271.469 22.8011 270.806 22.6253 270.062 22.6253C268.933 22.6253 268.02 22.9904 267.324 23.7274C266.628 24.4644 266.276 25.4042 266.276 26.5536C266.276 27.2974 266.438 27.9735 266.749 28.5752C267.067 29.177 267.513 29.6503 268.088 29.9951C268.663 30.3332 269.319 30.509 270.062 30.509ZM272.037 25.5124C272.037 25.0458 271.895 24.6942 271.604 24.4441C271.32 24.1939 270.928 24.0722 270.434 24.0722H268.392V29.0418H269.136V26.9525H269.86L271.3 29.0418L272.158 29.0215L270.671 26.9525C271.09 26.9052 271.421 26.7564 271.672 26.4995C271.922 26.2426 272.043 25.9113 272.043 25.5124H272.037ZM269.136 26.3237H270.367C271.002 26.3237 271.32 26.0533 271.32 25.5124C271.32 25.2487 271.232 25.0526 271.063 24.9174C270.894 24.7821 270.657 24.7213 270.367 24.7213H269.136V26.3237Z" fill="#00BDFE"></path></svg>